<svg xmlns="http://www.w3.org/2000/svg" width="12.398" height="13.682" viewBox="0 0 12.398 13.682"><path d="M18.389,4.317h0A8.859,8.859,0,0,1,13.92,2.76a1.111,1.111,0,0,0-1.427,0A9.033,9.033,0,0,1,8.009,4.317,1.112,1.112,0,0,0,7,5.427C7,13.5,12.522,15.994,12.752,16.1a1.2,1.2,0,0,0,.894,0c.231-.1,5.752-2.6,5.752-10.668A1.112,1.112,0,0,0,18.389,4.317Zm-5.2,10.8a7.692,7.692,0,0,1-2.163-1.6l.144-1.254a1.37,1.37,0,0,1,1.355-1.211h1.341a1.359,1.359,0,0,1,1.355,1.211l.144,1.254A7.241,7.241,0,0,1,13.185,15.115ZM13.2,9.752A1.254,1.254,0,1,1,14.453,8.5,1.255,1.255,0,0,1,13.2,9.752Zm3.128,2.609L16.3,12.13a2.462,2.462,0,0,0-1.471-1.961A2.335,2.335,0,1,0,10.864,8.5a2.316,2.316,0,0,0,.706,1.672A2.441,2.441,0,0,0,10.1,12.13l-.029.231A11.774,11.774,0,0,1,8.125,5.412a10.56,10.56,0,0,0,5.1-1.8,9.94,9.94,0,0,0,5.06,1.8l.029.029A11.657,11.657,0,0,1,16.328,12.361Z" transform="translate(-7 -2.5)" fill="#202020"/></svg>