<svg xmlns="http://www.w3.org/2000/svg" width="57.82" height="23.9" viewBox="0 0 57.82 23.9"><g transform="translate(0 -4.453)"><path d="M28.851,0a7.232,7.232,0,0,1,3.982,13.269,12.368,12.368,0,0,1,4.351,2.575,12.375,12.375,0,0,1,4.351-2.575,7.232,7.232,0,1,1,7.963,0,12.4,12.4,0,0,1,8.322,10.39l-2.27.241a10.1,10.1,0,0,0-16.83-6.372,12.322,12.322,0,0,1,2.435,6.13l-2.27.241a10.093,10.093,0,0,0-20.067,0l-2.27-.241a12.339,12.339,0,0,1,2.482-6.194A10.1,10.1,0,0,0,2.27,23.9L0,23.658a12.4,12.4,0,0,1,8.322-10.39,7.231,7.231,0,1,1,7.963,0,12.366,12.366,0,0,1,4.293,2.522,12.362,12.362,0,0,1,4.292-2.522A7.232,7.232,0,0,1,28.851,0ZM45.517,2.288A4.944,4.944,0,1,0,50.46,7.231a4.944,4.944,0,0,0-4.944-4.944Zm-33.213,0a4.944,4.944,0,1,0,4.944,4.944A4.944,4.944,0,0,0,12.3,2.288Zm16.547,0a4.944,4.944,0,1,0,4.944,4.944,4.943,4.943,0,0,0-4.944-4.944Z" transform="translate(0 4.453)"/></g></svg>