<svg xmlns="http://www.w3.org/2000/svg" width="34.487" height="21.892" viewBox="0 0 34.487 21.892"><g transform="translate(0.5 0.5)"><g transform="translate(0 0)"><g transform="translate(0 0)"><path d="M40.137,34.321a1.474,1.474,0,0,0,.35-.7,1.261,1.261,0,0,0-.35-.74A31.023,31.023,0,0,0,31.9,25.56a21.4,21.4,0,0,0-3.952-1.791,14.906,14.906,0,0,0-4.381-.584,12.391,12.391,0,0,0-5.549,1.168,24.8,24.8,0,0,0-5.86,3.6,41.26,41.26,0,0,0-4.867,4.965.987.987,0,0,0,0,1.4,31.907,31.907,0,0,0,8.138,7.223q7.788,4.692,15.459.642a30.577,30.577,0,0,0,9.248-7.866m-16.529-8.8a7.156,7.156,0,0,1,5.471,2.317,8.014,8.014,0,0,1,2.3,5.666A8.1,8.1,0,0,1,29.2,39.247a7.1,7.1,0,0,1-5.432,2.414,7.2,7.2,0,0,1-5.451-2.336,8.337,8.337,0,0,1,0-11.37,7.15,7.15,0,0,1,5.3-2.434M22.42,31.673a1.857,1.857,0,0,1-.565,1.363,1.765,1.765,0,0,1-1.343.584,1.826,1.826,0,0,1-1.363-.584,2.043,2.043,0,0,1-.409-.6,6.468,6.468,0,0,0-.1,1.266,5.312,5.312,0,0,0,1.577,3.8,4.759,4.759,0,0,0,3.66,1.519,4.673,4.673,0,0,0,3.543-1.655,5.46,5.46,0,0,0,1.46-3.816,5.148,5.148,0,0,0-1.6-3.835,5.091,5.091,0,0,0-3.758-1.48,4.791,4.791,0,0,0-3.368,1.519,3.063,3.063,0,0,1,.35-.019,1.794,1.794,0,0,1,1.343.565A1.922,1.922,0,0,1,22.42,31.673Z" transform="translate(-7 -23.175)" fill="none" stroke="#202020" stroke-width="1"/></g></g><ellipse cx="5" cy="6" rx="5" ry="6" transform="translate(11.394 4.462)" fill="#202020"/><path d="M2.458,0c1.358,0,6.589,1.839,5.3,2.594s-3.938,2.323-5.3,2.323A2.458,2.458,0,1,1,2.458,0Z" transform="translate(15.414 14.345) rotate(-135)" fill="#fff"/></g></svg>