<svg xmlns="http://www.w3.org/2000/svg" width="38" height="44.718" viewBox="0 0 38 44.718"><g transform="translate(-6.515 0.008)"><g transform="translate(6.515 -0.008)"><path d="M44.506,39.356,39.716,3.289a1.089,1.089,0,0,0-1.223-.936L28.317,3.7A5.5,5.5,0,0,0,17.631,5.124L7.46,6.475A1.088,1.088,0,0,0,6.525,7.7l4.789,36.067a1.084,1.084,0,0,0,1.222.936L43.57,40.578a1.089,1.089,0,0,0,.935-1.222ZM20.481,3.473a3.3,3.3,0,0,1,2.2-1.275,3.391,3.391,0,0,1,.443-.029,3.324,3.324,0,0,1,.432,6.619,3.385,3.385,0,0,1-.443.029,3.324,3.324,0,0,1-2.633-5.345ZM13.329,42.4,8.826,8.49l9.1-1.208a5.514,5.514,0,0,0,5.192,3.713,5.589,5.589,0,0,0,.73-.048,5.509,5.509,0,0,0,4.762-5.083L37.7,4.655l4.5,33.909Z" transform="translate(-6.515 0.008)"/><path d="M21.24,30.043a1.01,1.01,0,0,0,.1.1.849.849,0,0,0,.071.057,1.2,1.2,0,0,0,.11.065c.031.016.06.033.091.046.009,0,.016.009.025.013.036.014.073.021.11.031s.047.015.072.02a1.078,1.078,0,0,0,.215.023,1.1,1.1,0,0,0,.176-.015c.019,0,.037-.009.056-.012a1.124,1.124,0,0,0,.114-.03c.022-.007.043-.016.065-.025a1.02,1.02,0,0,0,.1-.047l.059-.033a.99.99,0,0,0,.106-.075c.01-.008.021-.013.031-.021l.008-.009a1.043,1.043,0,0,0,.138-.144c.009-.011.015-.023.024-.034a1.071,1.071,0,0,0,.08-.127c.011-.021.021-.042.031-.064s.018-.034.026-.053l2.794-7.159a1.088,1.088,0,1,0-2.027-.791l-2.133,5.465L20.8,26.178a1.088,1.088,0,0,0-1.656,1.413l2.069,2.423A.312.312,0,0,0,21.24,30.043Z" transform="translate(-12.707 -10.542)"/><path d="M34.294,31.92a1.1,1.1,0,0,0,.145-.009l12.021-1.6a1.088,1.088,0,1,0-.287-2.158l-12.021,1.6a1.089,1.089,0,0,0,.142,2.168Z" transform="translate(-19.881 -14.09)"/><path d="M23.453,46.721a1.078,1.078,0,0,0,.1.1c.023.019.046.039.071.056a1.049,1.049,0,0,0,.11.065c.03.016.059.033.09.046.009,0,.016.01.025.013a1.058,1.058,0,0,0,.11.031c.024.007.047.015.072.02a1.082,1.082,0,0,0,.215.023,1.149,1.149,0,0,0,.176-.015l.056-.013a1.006,1.006,0,0,0,.114-.03l.065-.025c.034-.014.068-.03.1-.047l.059-.034a1.1,1.1,0,0,0,.1-.074c.01-.008.021-.014.031-.022l.009-.01a1.066,1.066,0,0,0,.137-.143c.009-.011.016-.024.024-.035a1.01,1.01,0,0,0,.079-.126c.011-.021.021-.043.031-.065s.018-.034.025-.052l2.794-7.16a1.088,1.088,0,1,0-2.027-.791L23.9,43.9l-.889-1.041a1.088,1.088,0,1,0-1.655,1.414l2.069,2.423C23.432,46.7,23.443,46.711,23.453,46.721Z" transform="translate(-13.815 -18.893)"/><path d="M48.675,46.993a1.089,1.089,0,0,0-.287-2.158l-12.021,1.6a1.088,1.088,0,1,0,.287,2.158Z" transform="translate(-20.99 -22.442)"/><path d="M29.721,55a1.088,1.088,0,0,0-1.409.618L26.18,61.084l-.889-1.041a1.088,1.088,0,0,0-1.655,1.413L25.7,63.88c.009.01.021.018.031.029a1,1,0,0,0,.1.1c.024.02.047.04.072.057a1.091,1.091,0,0,0,.11.064c.03.016.059.033.091.047a.24.24,0,0,0,.025.012,1.057,1.057,0,0,0,.11.031c.024.007.047.015.071.02a1.119,1.119,0,0,0,.214.022,1.155,1.155,0,0,0,.176-.015c.019,0,.037-.009.056-.012a1.163,1.163,0,0,0,.114-.03c.022-.007.043-.016.065-.025s.068-.03.1-.047L27.1,64.1a1.136,1.136,0,0,0,.106-.075c.01-.008.02-.013.03-.021l.009-.009a1.073,1.073,0,0,0,.138-.144c.009-.011.015-.023.023-.034a.979.979,0,0,0,.08-.127q.016-.031.031-.064c.008-.018.018-.034.025-.053l2.794-7.16A1.091,1.091,0,0,0,29.721,55Z" transform="translate(-14.957 -27.5)"/><path d="M50.67,62.022l-12.021,1.6a1.088,1.088,0,1,0,.287,2.158l12.021-1.6a1.088,1.088,0,0,0-.287-2.158Z" transform="translate(-22.133 -31.048)"/></g></g></svg>