<svg xmlns="http://www.w3.org/2000/svg" xmlns:xlink="http://www.w3.org/1999/xlink" width="66.924" height="66.924" viewBox="0 0 66.924 66.924"><defs><style>.a{fill:url(#a);}.b{fill:#fff;}</style><linearGradient id="a" x1="1" y1="0.443" x2="0" y2="0.5" gradientUnits="objectBoundingBox"><stop offset="0" stop-color="#fffaf9"/><stop offset="0" stop-color="#ff5c26"/><stop offset="0.077" stop-color="#ff3f00"/><stop offset="0.515" stop-color="#fefefe"/><stop offset="0.867" stop-color="#ff622f"/><stop offset="1" stop-color="#ff3f00"/></linearGradient></defs><g transform="translate(0 0)"><g transform="translate(0 0)"><path d="M33.462,0A33.462,33.462,0,1,1,0,33.462,33.462,33.462,0,0,1,33.462,0Z" transform="translate(0 0)"/></g><path class="a" d="M29,0A29,29,0,1,1,0,29,29,29,0,0,1,29,0Z" transform="translate(4.462 4.462)"/><path d="M26.769,0A26.769,26.769,0,1,1,0,26.769,26.769,26.769,0,0,1,26.769,0Z" transform="translate(6.693 6.693)"/><path class="b" d="M10.846,4.1,18.613,3,15.52,5.194a3.892,3.892,0,0,1,2.348,2.46c.136.656-.287,1.457.081,2.14.447.83,1.169,1.031,1.276,1.244.047.119-.188.448-.174.388l-.358.2c-.165.823-.022.8.026.973l-.237.31-.031.153c-.348.571-.118.944-.09,1.384-.237.261-.786.235-2.082.3l-.548,1.286a9.717,9.717,0,0,0,1.305,2.333v.78H18.31l4.983-4.235-.023-9.288L18.559.977,0,1V5.991H1.891v20.64H0v4.992H10.633V26.631H8.742L8.3,22.772a4.588,4.588,0,0,1-.322-2.6,12.4,12.4,0,0,1,1.152-2.487,15.8,15.8,0,0,0,.981-3.581l-.228-.992a21.844,21.844,0,0,1-.932-4.258L4.491,10.6Z" transform="translate(23.449 17.325)"/></g></svg>