<svg xmlns="http://www.w3.org/2000/svg" width="33.192" height="33.192" viewBox="0 0 33.192 33.192"><g transform="translate(-5 -5)"><path d="M35.115,17.973l.936-4.146a.737.737,0,0,0-.5-.867L31.491,11.7,30.232,7.642a.737.737,0,0,0-.867-.5l-4.146.936L22.1,5.2a.738.738,0,0,0-1,0L17.972,8.077l-4.146-.936a.737.737,0,0,0-.867.5L11.7,11.7,7.642,12.96a.737.737,0,0,0-.5.867l.936,4.146L5.2,21.1a.738.738,0,0,0,0,1l2.882,3.123-.936,4.146a.737.737,0,0,0,.5.867L11.7,31.491,12.96,35.55a.737.737,0,0,0,.867.5l4.146-.936L21.1,38a.738.738,0,0,0,1,0l3.123-2.882,4.146.936a.737.737,0,0,0,.867-.5l1.259-4.059,4.059-1.259a.737.737,0,0,0,.5-.867l-.936-4.146L38,22.1a.738.738,0,0,0,0-1ZM33.768,24.5a.737.737,0,0,0-.177.663l.871,3.859L30.682,30.2a.737.737,0,0,0-.486.486l-1.172,3.779-3.858-.871a.736.736,0,0,0-.663.177L21.6,36.451l-2.908-2.683a.737.737,0,0,0-.662-.177l-3.859.871L13,30.682a.737.737,0,0,0-.486-.486L8.73,29.025,9.6,25.166a.738.738,0,0,0-.177-.663L6.741,21.6l2.683-2.908a.737.737,0,0,0,.177-.663L8.73,14.167,12.51,13A.737.737,0,0,0,13,12.509L14.167,8.73l3.858.871a.738.738,0,0,0,.663-.177L21.6,6.741,24.5,9.424a.737.737,0,0,0,.663.177l3.859-.871L30.2,12.51a.737.737,0,0,0,.486.486l3.779,1.172-.871,3.858a.738.738,0,0,0,.177.663L36.451,21.6Z" fill="#2ac56c"/><path d="M45.364,35.962a.737.737,0,0,0-1.029.171l-5.908,8.271-3.66-3.661a.737.737,0,0,0-1.043,1.043L38,46.064a.737.737,0,0,0,.521.216l.061,0a.736.736,0,0,0,.539-.306l6.415-8.98A.737.737,0,0,0,45.364,35.962Z" transform="translate(-17.994 -19.457)" fill="#2ac56c"/></g></svg>