<svg xmlns="http://www.w3.org/2000/svg" width="32.704" height="28.249" viewBox="0 0 32.704 28.249"><path d="M22.271,11.992a.743.743,0,0,0-.441.209l-2.207,2.207a.743.743,0,1,0,1.045,1.045l.941-.929v4.158a.743.743,0,1,0,1.487,0V14.524l.941.929a.743.743,0,1,0,1.045-1.045L22.874,12.2A.743.743,0,0,0,22.271,11.992Zm-13,8.919a.743.743,0,0,0-.674.743v1.463l-.012.023L6.07,28.774a.743.743,0,0,0-.07.314V39.493a.743.743,0,0,0,.743.743H37.96a.743.743,0,0,0,.743-.743V29.088a.743.743,0,0,0-.07-.314l-2.52-5.633-.012-.023V21.655a.743.743,0,0,0-.743-.743H9.345Q9.31,20.91,9.275,20.912Zm.813,1.487H34.616v5.946H29.041a.743.743,0,0,0-.743.743v3.345a.726.726,0,0,1-.743.743H17.149a.726.726,0,0,1-.743-.743V29.088a.743.743,0,0,0-.743-.743H10.088ZM8.6,26.753v1.591H7.893Zm27.5,0,.708,1.591H36.1ZM7.487,29.831h7.433v2.6a2.241,2.241,0,0,0,2.23,2.23H27.555a2.241,2.241,0,0,0,2.23-2.23v-2.6h7.433V38.75H7.487Z" transform="translate(-6 -11.988)"/></svg>